<svg version="1.2" xmlns="http://www.w3.org/2000/svg" viewBox="0 0 800 800" width="800" height="800">
	<title>car-delivery-package-svgrepo-com</title>
	<style>
		.s0 { fill: none } 
		.s1 { fill: #f3d32f } 
	</style>
	<g id="SVGRepo_bgCarrier">
	</g>
	<g id="SVGRepo_tracerCarrier">
	</g>
	<g id="SVGRepo_iconCarrier">
		<g>
			<g id="truck-box">
				<path fill-rule="evenodd" class="s0" d="m0 0h800v800h-800z"/>
				<g>
					<path fill-rule="evenodd" class="s1" d="m179.3 600h-79.3c-6.6 0-13-2.6-17.7-7.3-4.7-4.7-7.3-11.1-7.3-17.7 0-71.8 0-278.2 0-350 0-6.6 2.6-13 7.3-17.7 4.7-4.7 11.1-7.3 17.7-7.3 75.4 0 299.7 0 375 0 13.8 0 25 11.2 25 25v50h103.8c21.9 0 42.3 11.5 53.6 30.3 20.8 34.7 53.3 88.9 64 106.8 2.4 3.9 3.6 8.4 3.6 12.9 0 24.5 0 107.8 0 150 0 6.6-2.6 13-7.3 17.7-4.7 4.7-11.1 7.3-17.7 7.3h-79.3c-10.3 29.1-38.1 50-70.7 50-32.6 0-60.4-20.9-70.7-50h-158.6c-10.3 29.1-38.1 50-70.7 50-32.6 0-60.4-20.9-70.7-50zm45.7-25c0 13.8 11.2 25 25 25 13.8 0 25-11.2 25-25 0-13.8-11.2-25-25-25-13.8 0-25 11.2-25 25zm300 0c0 13.8 11.2 25 25 25 13.8 0 25-11.2 25-25 0-13.8-11.2-25-25-25-13.8 0-25 11.2-25 25zm-75-325h-325v300h54.3c10.3-29.1 38.1-50 70.7-50 32.6 0 60.4 20.9 70.7 50h158.6c10.3-29.1 38.1-50 70.7-50 32.6 0 60.4 20.9 70.7 50h54.3v-100h-100c-13.8 0-25-11.2-25-25 0-13.8 11.2-25 25-25h80.9l-37.8-62.9c-4.5-7.5-12.6-12.1-21.4-12.1h-96.7v100c0 13.8-11.2 25-25 25-13.8 0-25-11.2-25-25z"/>
				</g>
			</g>
		</g>
	</g>
</svg>