<svg version="1.2" xmlns="http://www.w3.org/2000/svg" viewBox="0 0 800 800" width="800" height="800">
	<title>card-2-svgrepo-com</title>
	<style>
		.s0 { fill: none;stroke: #f3d32f;stroke-width: 50 } 
		.s1 { fill: none;stroke: #f3d32f;stroke-linecap: round;stroke-width: 50 } 
	</style>
	<g id="SVGRepo_bgCarrier">
	</g>
	<g id="SVGRepo_tracerCarrier">
	</g>
	<g id="SVGRepo_iconCarrier">
		<path class="s0" d="m66.7 400c0-125.7 0-188.6 39-227.6 39.1-39.1 101.9-39.1 227.6-39.1h133.4c125.7 0 188.5 0 227.6 39.1 39 39 39 101.9 39 227.6 0 125.7 0 188.6-39 227.6-39.1 39.1-101.9 39.1-227.6 39.1h-133.4c-125.7 0-188.5 0-227.6-39.1-39-39-39-101.9-39-227.6z"/>
		<path class="s1" d="m333.3 550h-133.3"/>
		<path class="s1" d="m266.7 450h-66.7"/>
		<path class="s1" d="m66.7 333.3h666.6"/>
		<path class="s0" d="m466.7 500c0-31.4 0-47.1 9.7-56.9 9.8-9.8 25.5-9.8 56.9-9.8 31.5 0 47.2 0 56.9 9.8 9.8 9.8 9.8 25.5 9.8 56.9 0 31.4 0 47.1-9.8 56.9-9.7 9.8-25.4 9.8-56.9 9.8-31.4 0-47.1 0-56.9-9.8-9.7-9.8-9.7-25.5-9.7-56.9z"/>
	</g>
</svg>