<svg version="1.2" xmlns="http://www.w3.org/2000/svg" viewBox="0 0 802 802" width="802" height="802">
	<title>invoice-bill-svgrepo-com</title>
	<style>
		.s0 { fill: #f3d32f } 
	</style>
	<g id="SVGRepo_bgCarrier">
	</g>
	<g id="SVGRepo_tracerCarrier">
	</g>
	<g id="SVGRepo_iconCarrier">
		<g>
			<g>
				<path class="s0" d="m701.4 2.8l-92.7 46.3-92.7-46.3c-7.3-3.7-16-3.7-23.3 0l-92.7 46.3-92.7-46.3c-7.3-3.7-16-3.7-23.3 0l-92.7 46.3-92.7-46.3c-17.3-8.7-37.7 3.9-37.7 23.3v695.6c0 9.9 5.6 19 14.4 23.4l104.3 52.1c7.4 3.7 16 3.7 23.4 0l92.7-46.3 92.6 46.3c7.4 3.7 16 3.7 23.4 0l92.6-46.3 92.7 46.3c7.4 3.7 16 3.7 23.4 0l104.3-52.1c8.8-4.4 14.4-13.5 14.4-23.4v-695.6c0-19.3-20.4-32-37.7-23.3zm-14.5 614.6v88.2l-78.2 39.1-92.7-46.3c-3.7-1.8-7.7-2.7-11.7-2.7-4 0-7.9 0.9-11.6 2.7l-92.7 46.3-92.7-46.3c-7.3-3.7-16-3.7-23.3 0l-92.7 46.3-78.2-39.1v-88.2-549.1l66.5 33.3c7.4 3.7 16 3.7 23.4 0l92.7-46.3 92.6 46.3c7.4 3.7 16 3.7 23.4 0l92.6-46.3 92.7 46.3c7.4 3.7 16 3.7 23.4 0l66.5-33.3c0 0 0 549.1 0 549.1z"/>
			</g>
		</g>
		<g>
			<g>
				<path class="s0" d="m330.4 156.5h-139.1c-14.4 0-26.1 11.7-26.1 26.1 0 14.4 11.7 26.1 26.1 26.1h139.1c14.4 0 26.1-11.7 26.1-26.1 0-14.4-11.7-26.1-26.1-26.1z"/>
			</g>
		</g>
		<g>
			<g>
				<path class="s0" d="m330.4 260.9h-139.1c-14.4 0-26.1 11.7-26.1 26.1 0 14.4 11.7 26.1 26.1 26.1h139.1c14.4 0 26.1-11.7 26.1-26.1 0-14.4-11.7-26.1-26.1-26.1z"/>
			</g>
		</g>
		<g>
			<g>
				<path class="s0" d="m330.4 365.2h-139.1c-14.4 0-26.1 11.7-26.1 26.1 0 14.4 11.7 26.1 26.1 26.1h139.1c14.4 0 26.1-11.7 26.1-26.1 0-14.4-11.7-26.1-26.1-26.1z"/>
			</g>
		</g>
		<g>
			<g>
				<path class="s0" d="m330.4 469.6h-139.1c-14.4 0-26.1 11.7-26.1 26.1 0 14.4 11.7 26 26.1 26h139.1c14.4 0 26.1-11.6 26.1-26 0-14.4-11.7-26.1-26.1-26.1z"/>
			</g>
		</g>
		<g>
			<g>
				<path class="s0" d="m191.3 591.3h-52.2c-14.4 0-26 11.7-26 26.1 0 14.4 11.6 26.1 26 26.1h52.2c14.4 0 26.1-11.7 26.1-26.1 0-14.4-11.7-26.1-26.1-26.1z"/>
			</g>
		</g>
		<g>
			<g>
				<path class="s0" d="m347.8 591.3h-52.1c-14.5 0-26.1 11.7-26.1 26.1 0 14.4 11.6 26.1 26.1 26.1h52.1c14.4 0 26.1-11.7 26.1-26.1 0-14.4-11.7-26.1-26.1-26.1z"/>
			</g>
		</g>
		<g>
			<g>
				<path class="s0" d="m504.3 591.3h-52.1c-14.4 0-26.1 11.7-26.1 26.1 0 14.4 11.7 26.1 26.1 26.1h52.1c14.5 0 26.1-11.7 26.1-26.1 0-14.4-11.6-26.1-26.1-26.1z"/>
			</g>
		</g>
		<g>
			<g>
				<path class="s0" d="m660.9 591.3h-52.2c-14.4 0-26.1 11.7-26.1 26.1 0 14.4 11.7 26.1 26.1 26.1h52.2c14.4 0 26-11.7 26-26.1 0-14.4-11.6-26.1-26-26.1z"/>
			</g>
		</g>
		<g>
			<g>
				<path class="s0" d="m551.3 298.7c-27.4-14.5-55.7-29.4-55.7-46.5 0-24 19.6-43.5 43.5-43.5 24 0 43.5 19.5 43.5 43.5 0 14.4 11.7 26.1 26.1 26.1 14.4 0 26.1-11.7 26.1-26.1 0-43.7-29.5-80.6-69.6-92v-12.4c0-14.4-11.7-26-26.1-26-14.4 0-26.1 11.6-26.1 26v12.4c-40.1 11.4-69.5 48.3-69.5 92 0 48.5 46.3 73 83.4 92.6 27.4 14.5 55.7 29.4 55.7 46.5 0 24-19.5 43.5-43.5 43.5-23.9 0-43.5-19.5-43.5-43.5 0-14.4-11.6-26.1-26-26.1-14.4 0-26.1 11.7-26.1 26.1 0 43.7 29.4 80.6 69.5 92v12.4c0 14.4 11.7 26 26.1 26 14.4 0 26.1-11.6 26.1-26v-12.4c40.1-11.4 69.6-48.3 69.6-92 0-48.5-46.3-73-83.5-92.6z"/>
			</g>
		</g>
	</g>
</svg>