<?xml version="1.0" encoding="UTF-8"?>
<svg id="Camada_2" data-name="Camada 2" xmlns="http://www.w3.org/2000/svg" viewBox="0 0 390.63 63.86">
  <defs>
    <style>
      .cls-1 {
        fill: #ffd402;
      }

      .cls-2 {
        fill: #282623;
      }
    </style>
  </defs>
  <g id="Camada_1-2" data-name="Camada 1">
    <g>
      <g>
        <g>
          <g>
            <path class="cls-2" d="M388.12,19.52c-1.67-3.89-3.98-7.32-6.88-10.18-2.89-2.86-6.31-5.16-10.15-6.82-3.85-1.67-8.02-2.52-12.38-2.52s-8.53,.85-12.39,2.52c-3.84,1.67-7.24,3.96-10.1,6.83-2.86,2.86-5.15,6.29-6.81,10.18-1.67,3.9-2.51,8.09-2.51,12.46s.85,8.55,2.52,12.41c1.67,3.85,3.96,7.26,6.83,10.12s6.26,5.16,10.12,6.83c3.86,1.67,8.04,2.52,12.41,2.52,3.73,0,7.28-.6,10.55-1.78,2.72-.99,5.27-2.29,7.61-3.88v4.85h0c7.57,0,13.71-6.14,13.71-13.71V31.99c0-4.37-.85-8.56-2.51-12.46Zm-11.2,12.46c0,2.45-.49,4.8-1.45,6.99-.96,2.2-2.28,4.15-3.91,5.79-1.62,1.64-3.56,2.96-5.75,3.93-2.17,.96-4.55,1.45-7.06,1.45s-4.89-.49-7.06-1.45c-2.19-.97-4.12-2.29-5.75-3.93-1.63-1.64-2.94-3.58-3.91-5.79-.96-2.18-1.44-4.54-1.44-6.99s.49-4.92,1.44-7.11c.96-2.2,2.28-4.15,3.91-5.79,1.63-1.64,3.56-2.96,5.75-3.93,2.17-.96,4.55-1.45,7.06-1.45s4.89,.49,7.06,1.45c2.18,.97,4.12,2.29,5.75,3.93,1.63,1.64,2.94,3.59,3.91,5.79,.96,2.19,1.45,4.58,1.45,7.11Z"/>
            <path class="cls-2" d="M149.66,31.94c0,12.57-7.57,23.91-19.19,28.72-11.61,4.81-24.98,2.15-33.87-6.74-8.89-8.89-11.55-22.26-6.74-33.87C94.68,8.43,106.01,.86,118.59,.86c17.14,.05,31.03,13.94,31.08,31.08Zm-31.08,16.84c9.29-.03,16.81-7.55,16.84-16.84,0-9.93-8.6-17.86-18.76-16.74-7.72,.85-13.97,7.1-14.82,14.82-1.12,10.16,6.8,18.76,16.74,18.76h0Z"/>
          </g>
          <g>
            <path class="cls-2" d="M248.13,49.27v13.39h-16.67c-2.9,0-5.78-.46-8.51-1.44-1.75-.63-3.39-1.4-4.9-2.31-6.42-3.88-10.19-10.98-10.19-18.49V21.86c0-3.78,.87-7.54,2.76-10.82,1.59-2.75,3.71-5.06,6.42-6.9,3.7-2.51,8.13-3.73,12.61-3.73h27.53c7.14,0,12.94,5.79,12.94,12.94h0c0,2.71-.33,5.42-1.1,8.02-1.14,3.88-3.19,7.46-6.15,10.25-1.44,1.36-3.06,2.51-4.79,3.47-1.9,1.06-4.08,2.17-6.27,2.4-2.39,.25-4.9,.04-7.29,.04-2.97,0-5.94,0-8.91,0h-2.99v-13.38h15.9c1.7,0,3.38-.48,4.75-1.48,2.36-1.74,3.63-4.67,3.22-9.4,0,0-25.61,0-25.61,0-1.74,0-3.47,.44-5,1.28-2.28,1.25-4.38,3.57-4.9,6.18-.18,.9-.09,1.77-.09,2.68s-.01,1.77-.01,2.65v15.55c.5,4.03,2.8,6.77,7.73,7.63l19.55,.03Z"/>
            <rect class="cls-1" x="253.26" y="49.27" width="13.39" height="13.39"/>
          </g>
        </g>
        <path class="cls-2" d="M288.96,.72h0s-6.09,0-6.09,0c-4.48,0-8.11,3.63-8.11,8.11V62.88h14.19V14.91h8.31c3.92,0,7.1-3.18,7.1-7.1h0c0-3.92-3.18-7.1-7.1-7.1h-8.31Z"/>
        <rect class="cls-2" x="309.32" y=".72" width="14.19" height="62.16"/>
        <path class="cls-2" d="M83.52,24.44V62.16h-14.24V24.44c.15-3.74-1.76-7.27-4.98-9.19-3.22-1.92-7.23-1.92-10.45,0-3.22,1.92-5.13,5.44-4.98,9.19V62.16h-14.24V24.44c.15-3.74-1.76-7.27-4.98-9.19-3.22-1.92-7.23-1.92-10.45,0-3.22,1.92-5.13,5.44-4.98,9.19V62.16H0V24.44C.04,10.96,10.96,.04,24.44,0c6.51,0,12.74,2.61,17.32,7.24C46.33,2.61,52.57,0,59.08,0c13.48,.04,24.4,10.96,24.44,24.44Z"/>
      </g>
      <path class="cls-2" d="M179.43,0c-.23,0-.45,.02-.68,.03-.23,0-.45-.03-.68-.03-13.48,.04-24.4,10.96-24.44,24.44V62.16h14.24V24.44c-.15-3.74,1.76-7.27,4.98-9.19,1.58-.94,3.36-1.41,5.14-1.42,.51,0,1.02,0,1.52,0,1.78,.01,3.55,.47,5.14,1.42,3.22,1.92,5.13,5.44,4.98,9.19V62.16h14.24V24.44C203.83,10.96,192.91,.04,179.43,0Z"/>
    </g>
  </g>
</svg>