<svg version="1.2" xmlns="http://www.w3.org/2000/svg" viewBox="0 0 800 800" width="800" height="800">
	<title>Objeto Inteligente de Vetor</title>
	<style>
		.s0 { fill: #f3d32f } 
	</style>
	<g id="Camada 1">
		<g id="SVGRepo bgCarrier">
		</g>
		<g id="SVGRepo tracerCarrier">
		</g>
		<g id="SVGRepo iconCarrier">
			<g id="&lt;Group&gt;">
				<path id="&lt;Compound Path&gt;" fill-rule="evenodd" class="s0" d="m475.1 81.1l133.4 133.4h-12.7q-0.1 0-0.2 0c-27.2 0-53.2 10.8-72.4 30.1l-105 105q0 0 0 0c-3.8 3.8-8.8 5.7-13.8 5.7-5 0-10-1.9-13.8-5.7l-105.4-105.4c-19.4-19.4-45.2-30.1-72.7-30.1h-20.7l133-133c20.8-20.7 48-31.1 75.2-31.1 27.2 0 54.4 10.4 75.1 31.1zm-57 369.3l105.1 105c19.1 19.2 45.2 30.1 72.4 30.1q0.1 0 0.2 0h12.7l-133.4 133.4c-20.7 20.7-47.9 31.1-75.1 31.1-27.2 0-54.5-10.4-75.2-31.1l-133-133h20.7q0.1 0 0.3 0c27.2 0 53.2-10.9 72.4-30.1l105.4-105.4c3.9-3.7 8.8-5.5 13.8-5.5 4.9 0 9.9 1.8 13.7 5.5zm-58-333.9l-69.1 69.2c10.6 6.4 20.5 14.1 29.6 23.1l83.8 83.9 83.4-83.5c7.6-7.6 15.8-14.3 24.7-20l-72.7-72.7c-10.6-10.6-24.8-16.5-39.8-16.5-15.1 0-29.2 5.9-39.9 16.5zm-39.5 474.6c-9 9-18.9 16.8-29.7 23.2l69.3 69.2c10.6 10.6 24.7 16.5 39.8 16.5 15 0 29.2-5.9 39.8-16.5l72.7-72.7c-8.9-5.8-17.1-12.5-24.7-20.1l-83.4-83.4z"/>
			</g>
			<g id="&lt;Group&gt;">
				<path id="&lt;Compound Path&gt;" fill-rule="evenodd" class="s0" d="m167.5 244.9h45c19.1 0 37.4 7.6 50.9 21.1l105.4 105.4q0.1 0.1 0.2 0.2c9.8 9.8 22.6 14.6 35.4 14.6 12.9 0 25.8-4.9 35.6-14.8l105-105c13.4-13.4 31.9-21.1 50.9-21.1h36.6c2 0 3.9-0.4 5.7-1.1l80.6 80.6v-0.1c41.5 41.5 41.5 108.9 0 150.4l-80.5 80.6c-1.8-0.7-3.8-1.2-5.8-1.2h-36.6c-19 0-37.5-7.6-50.9-21l-105-105c-9.9-9.5-22.8-14.3-35.6-14.3-12.8 0-25.7 4.8-35.7 14.3l-105.3 105.4c-13.4 13.4-31.9 21.1-50.9 21.1h-45.1c-1.8 0-3.6 0.4-5.4 1.1l-80.9-80.9c-41.5-41.6-41.5-108.9 0-150.4l80.9-81c1.8 0.7 3.6 1.1 5.5 1.1zm428.4 50.4c-5.7 0-11.4 2.4-15.4 6.4h-0.1v0.1l-98.2 98.1 98.2 98.2v0.1h0.1c3.9 4 9.7 6.3 15.4 6.3h22.8l64.8-64.7c10.6-10.7 16.5-24.8 16.5-39.9 0-14.4-5.4-27.9-15.1-38.4l-1.4-1.4-64.8-64.8zm-414.2-0.4l-65.2 65.2c-22 22-22 57.7 0 79.7l65.1 65.2h30.9c5.7 0 11.5-2.4 15.5-6.4l98.6-98.7-98.5-98.5c-4.2-4.2-9.8-6.5-15.7-6.5z"/>
			</g>
		</g>
	</g>
</svg>